<svg height="512" viewBox="0 0 512 512" width="512" xmlns="http://www.w3.org/2000/svg"><g id="Filled_outline" data-name="Filled outline"><path d="m184 237.71c0 .77-.02 1.53-.07 2.29-1.1 17.87-14.98 32-31.93 32a30.066 30.066 0 0 1 -4.16-.29c-15.01-2.09-26.76-15.33-27.77-31.71-.05-.76-.07-1.52-.07-2.29a297.313 297.313 0 0 1 3.63-45.71h56.74a297.313 297.313 0 0 1 3.63 45.71z" fill="#e0e0de"/><path d="m184 237.71c0 .77-.02 1.53-.07 2.29-1.1 17.87-14.98 32-31.93 32a30.066 30.066 0 0 1 -4.16-.29c10.76-19.16 11.04-51.86 7.88-79.71h24.65a297.313 297.313 0 0 1 3.63 45.71z" fill="#d6d6d4"/><path d="m183.93 240c-1.1 17.87-14.98 32-31.93 32a30.066 30.066 0 0 1 -4.16-.29c-15.01-2.09-26.76-15.33-27.77-31.71z" fill="#f35244"/><path d="m183.93 240c-1.1 17.87-14.98 32-31.93 32a30.066 30.066 0 0 1 -4.16-.29c4.75-8.46 7.46-19.56 8.74-31.71z" fill="#de4132"/><path d="m392 280.38v47.62h-128v-47.62l2-.38h.18a33.263 33.263 0 0 0 21.82-31.24v-32.76h80v32.76a33.236 33.236 0 0 0 21.82 31.24h.18z" fill="#fec9a3"/><path d="m368 240v-24h-80v24a87.469 87.469 0 0 0 80 0z" fill="#feb784"/><path d="m389.818 280.005-14.42-26.481-47.398 26.471-47.398-26.471-14.42 26.481-42.182 7.995v208h208v-208z" fill="#d6d6d4"/><path d="m390 280.005h-.182l-61.818 168-61.818-168h-.182l-42 7.995v208h208v-208z" fill="#3d4d63"/><path d="m390 280.005h-.182l-61.818 168-61.818-168h-.182l-42 7.995v208h208v-208z" fill="#354766"/><path d="m400 112h8a24 24 0 0 1 24 24 24 24 0 0 1 -24 24h-8a0 0 0 0 1 0 0v-48a0 0 0 0 1 0 0z" fill="#feb784"/><path d="m400 104v56a72.006 72.006 0 0 1 -72 72c-1.73 0-3.44-.06-5.14-.18a72.017 72.017 0 0 1 -66.86-71.82v-56a72.006 72.006 0 0 1 72-72c1.53 0 3.04.05 4.54.14a72.013 72.013 0 0 1 67.46 71.86z" fill="#fec9a3"/><path d="m400 104v56a72.006 72.006 0 0 1 -72 72c-1.73 0-3.44-.06-5.14-.18a87.9 87.9 0 0 0 37.14-71.82v-64a87.688 87.688 0 0 0 -25.78-62.22c-.55-.55-1.11-1.1-1.68-1.64a72.013 72.013 0 0 1 67.46 71.86z" fill="#fec093"/><path d="m256 112h-8a24.071 24.071 0 0 0 -24 24 24.071 24.071 0 0 0 24 24h8z" fill="#feb784"/><path d="m400 112.005v-48.005c0-26.51-17.909-31.995-40-31.995l-24-.005s32 48 64 80.005z" fill="#95573a"/><path d="m256 112v-48c0-26.514 17.909-32 40-32h24s-32 48-64 80z" fill="#95573a"/><path d="m256 64h120a24 24 0 0 0 24-24v-16h-104a40 40 0 0 0 -40 40z" fill="#7a432a"/><path d="m168 337.63v158.37h56v-208l-14.788 2.112a48 48 0 0 0 -41.212 47.518z" fill="#d6d6d4"/><path d="m488 337.63v158.37h-56v-208l14.79 2.11a48.016 48.016 0 0 1 41.21 47.52z" fill="#d6d6d4"/><path d="m312 280h32v32h-32z" fill="#374559"/><path d="m312 280-48-16v64l48-16z" fill="#2e3e51"/><path d="m344 280 48-16v64l-48-16z" fill="#2e3e51"/><path d="m184 408h-56l-3.636 40h59.636z" fill="#ebebe9"/><path d="m124.364 448-4.364 48h64v-48z" fill="#e0e0de"/><path d="m184 384v24h-72a40.016 40.016 0 0 1 -39.2-32 40.571 40.571 0 0 1 -.8-8v-8h88a24 24 0 0 1 22.62 16 23.6 23.6 0 0 1 1.38 8z" fill="#fec9a3"/><path d="m24 328h208a0 0 0 0 1 0 0 32 32 0 0 1 -32 32h-144a32 32 0 0 1 -32-32 0 0 0 0 1 0 0z" fill="#95573a"/><path d="m200 328a32 32 0 0 1 -32 32h32a32 32 0 0 0 32-32z" fill="#8f4d2e"/><path d="m96 171.377v-83.377h-32v83.377a39.975 39.975 0 0 0 -24 36.623v120h80v-120a39.975 39.975 0 0 0 -24-36.623z" fill="#2e3e51"/><path d="m96 171.377v-83.377h-16v88.165a39.769 39.769 0 0 1 16 31.835v120h24v-120a39.975 39.975 0 0 0 -24-36.623z" fill="#29384a"/><path d="m64 88h32v32h-32z" fill="#ffb531"/><path d="m80 88h16v32h-16z" fill="#f98500"/><path d="m40 216h40v72h-40z" fill="#bfbfbd"/><path d="m40 276v12h40v-52z" fill="#b0b0ae"/><path d="m232 237.71c0 .77-.02 1.53-.07 2.29-1.1 17.87-14.98 32-31.93 32a30.066 30.066 0 0 1 -4.16-.29c-15.01-2.09-26.76-15.33-27.77-31.71-.05-.76-.07-1.52-.07-2.29a297.313 297.313 0 0 1 3.63-45.71h56.74a297.313 297.313 0 0 1 3.63 45.71z" fill="#e0e0de"/><path d="m232 237.71c0 .77-.02 1.53-.07 2.29-1.1 17.87-14.98 32-31.93 32a30.066 30.066 0 0 1 -4.16-.29c10.76-19.16 11.04-51.86 7.88-79.71h24.65a297.313 297.313 0 0 1 3.63 45.71z" fill="#d6d6d4"/><path d="m231.93 240c-1.1 17.87-14.98 32-31.93 32a30.066 30.066 0 0 1 -4.16-.29c-15.01-2.09-26.76-15.33-27.77-31.71z" fill="#f35244"/><path d="m231.93 240c-1.1 17.87-14.98 32-31.93 32a30.066 30.066 0 0 1 -4.16-.29c4.75-8.46 7.46-19.56 8.74-31.71z" fill="#de4132"/><path d="m182.62 376h-109.82a40.571 40.571 0 0 1 -.8-8v-8h88a24 24 0 0 1 22.62 16z" fill="#fec093"/><path d="m279.085 496h152.915v-121.715c-48.395 59.598-106.772 98.15-152.915 121.715z" fill="#31425e"/><path d="m488 337.63v158.37h-56v-114.35c15.6-20.79 30.26-45.47 44.03-75.73a47.855 47.855 0 0 1 11.97 31.71z" fill="#ccccca"/><path d="m368 416h64v32h-64z" fill="#ffb531"/><path d="m368 432h64v16h-64z" fill="#f98500"/><path d="m320 440.008h16v55.992h-16z" fill="#2e3e51"/><path d="m304 180.564h16.934a115.032 115.032 0 0 0 33.385-4.9l-4.638-15.312a99.1 99.1 0 0 1 -28.747 4.215h-16.934z"/><path d="m292 136.005a12 12 0 1 0 -12-12 12.013 12.013 0 0 0 12 12z"/><path d="m364 136.005a12 12 0 1 0 -12-12 12.013 12.013 0 0 0 12 12z"/><path d="m447.919 282.192-14.612-2.087-33.307-6.328v-9.777a8 8 0 0 0 -10.53-7.59l-10.824 3.608a25.331 25.331 0 0 1 -2.646-11.298v-24.754a79.766 79.766 0 0 0 31.6-55.966h.4a32 32 0 0 0 0-64v-40a50.8 50.8 0 0 0 -1.731-13.641 31.845 31.845 0 0 0 1.731-10.359v-16a8 8 0 0 0 -8-8h-104a48.017 48.017 0 0 0 -41.612 24.121c-.159.241-.343.53-.556.913a36.738 36.738 0 0 0 -5.466 17.138c-.232 1.912-.366 45.828-.366 45.828a32 32 0 1 0 0 64h.405a79.76 79.76 0 0 0 31.595 55.967v24.753a25.4 25.4 0 0 1 -2.665 11.292l-10.805-3.6a8 8 0 0 0 -10.53 7.588v9.777l-33.309 6.328-14.676 2.063h-.015v-3.021c18.235-3.929 32-21.014 32-41.435a306.992 306.992 0 0 0 -3.725-46.942 8 8 0 0 0 -7.905-6.77h-104.77a7.947 7.947 0 0 0 -1.924.241 48.055 48.055 0 0 0 -17.676-17.77v-78.471a8 8 0 0 0 -8-8h-32a8 8 0 0 0 -8 8v78.471a47.99 47.99 0 0 0 -24 41.529v112h-8a8 8 0 0 0 -8 8 40.045 40.045 0 0 0 40 40h8a48.053 48.053 0 0 0 48 48h7.24l-7.207 79.275 15.934 1.45 3.7-40.725h44.333v40h16v-112a31.793 31.793 0 0 0 -4.305-16h12.305a39.759 39.759 0 0 0 16-3.35v131.35h16v-144.028a39.789 39.789 0 0 0 8-23.972 8 8 0 0 0 -8-8v-25.377l24-4.56v37.937a8 8 0 0 0 10.53 7.59l10.329-3.443 43.141 117.277v46.576h16v-46.576l43.141-117.277 10.329 3.443a8 8 0 0 0 10.53-7.59v-37.937l24 4.56v113.377h-56a8 8 0 0 0 -8 8v32a8 8 0 0 0 8 8h56v40h16v-198.776l5.656.808a40.2 40.2 0 0 1 34.344 39.598v158.37h16v-158.37a56.277 56.277 0 0 0 -48.081-55.438zm-267.819 37.808a40.33 40.33 0 0 1 11.9-14.311v14.311zm-52.1-48.487a38.83 38.83 0 0 0 16 7.635v40.852h-16zm32 7.624a38.713 38.713 0 0 0 16-7.613 38.861 38.861 0 0 0 16 7.625v7.918a56.371 56.371 0 0 0 -29.158 32.933h-2.842zm20.4-79.137h41.04a287.272 287.272 0 0 1 2.56 37.714c0 14.494-10.767 26.286-24 26.286s-24-11.792-24-26.286a287.272 287.272 0 0 1 2.56-37.714zm-17.96 0a302.4 302.4 0 0 0 -2.44 37.714 43.84 43.84 0 0 0 5.64 21.617 22.144 22.144 0 0 1 -13.64 4.669c-13.233 0-24-11.808-24-26.32a290.214 290.214 0 0 1 2.541-37.68zm-90.44-104h16v16h-16zm-24 128h24v56h-24zm0 72h32a8 8 0 0 0 8-8v-72a8 8 0 0 0 -8-8h-32a32 32 0 0 1 19.208-29.294 8 8 0 0 0 4.792-7.329v-43.377h16v43.377a8 8 0 0 0 4.792 7.329 32 32 0 0 1 19.208 29.294v112h-64zm85.124 144 2.182-24h40.694v24zm42.876-56v16h-64a32.036 32.036 0 0 1 -32-32h80a16.019 16.019 0 0 1 16 16zm-120-32a24.042 24.042 0 0 1 -22.629-16h189.258a24.042 24.042 0 0 1 -22.629 16zm152-32v-21.567c.777-.167 1.55-.317 2.313-.431l5.687-.8v22.798zm134.7-48h-29.4l-20.685-6.895a41.5 41.5 0 0 0 3.385-16.385v-15.4a79.948 79.948 0 0 0 64 0v15.4a41.284 41.284 0 0 0 3.376 16.388zm-6.7 16v16h-16v-16zm-72-216h16.6c-5.039 6.3-10.674 13.1-16.6 19.776zm30.13-16 14.4-24h21.34l-14.4 24zm54.4-24h21.34l-14.4 24h-21.34zm43.47 35.695v24.081c-5.925-6.676-11.56-13.476-16.6-19.776h.6a31.8 31.8 0 0 0 16-4.305zm32 68.305a16.019 16.019 0 0 1 -16 16v-32a16.019 16.019 0 0 1 16 16zm-32-96a16.019 16.019 0 0 1 -16 16h-1.87l14.4-24h3.47zm-102.535-7.325-13.995 23.325h-10.457a32.1 32.1 0 0 1 24.452-23.325zm-57.465 103.325a16.019 16.019 0 0 1 16-16v32a16.019 16.019 0 0 1 -16-16zm32 24v-44.72c13.922-14.247 27.309-30.757 36.918-43.28h54.164c9.609 12.523 23 29.033 36.918 43.28v44.72a64 64 0 0 1 -128 0zm8 115.1 5.947 1.982c.11.041.21.1.323.133l2.2.707 23.53 7.844v20.468l-32 10.666zm41.3 44.9h6.7v83.08l-27.956-75.995zm22.7 83.08v-83.08h6.7l21.256 7.085zm48-86.18-32-10.666v-20.468l23.531-7.844 2.2-.707c.109-.035.206-.09.312-.13l5.957-1.985zm-8 123.1v-16h48v16z"/></g></svg>